<svg width="17" height="17" viewBox="0 0 17 17" fill="none" xmlns="http://www.w3.org/2000/svg">
<path d="M7.28904 2.73419L1.28946 12.75C1.16576 12.9642 1.10031 13.2071 1.09961 13.4545C1.09892 13.7018 1.16301 13.9451 1.28551 14.16C1.408 14.3749 1.58464 14.554 1.79783 14.6794C2.01103 14.8049 2.25336 14.8723 2.50071 14.875H14.4999C14.7472 14.8723 14.9895 14.8049 15.2027 14.6794C15.4159 14.554 15.5926 14.3749 15.7151 14.16C15.8376 13.9451 15.9017 13.7018 15.901 13.4545C15.9003 13.2071 15.8348 12.9642 15.7111 12.75L9.71154 2.73419C9.58526 2.52602 9.40747 2.3539 9.1953 2.23445C8.98314 2.115 8.74377 2.05225 8.50029 2.05225C8.25681 2.05225 8.01744 2.115 7.80528 2.23445C7.59311 2.3539 7.41531 2.52602 7.28904 2.73419V2.73419Z" stroke="#ED4971" stroke-width="1.41667" stroke-linecap="round" stroke-linejoin="round"/>
<path d="M8.49976 6.375V9.20833" stroke="#ED4971" stroke-width="1.41667" stroke-linecap="round" stroke-linejoin="round"/>
<path d="M8.49976 12.0415H8.50767" stroke="#ED4971" stroke-width="1.41667" stroke-linecap="round" stroke-linejoin="round"/>
</svg>
