<svg width="17" height="18" viewBox="0 0 17 18" fill="none" xmlns="http://www.w3.org/2000/svg">
<path d="M14.1667 6.875H7.79167C7.00926 6.875 6.375 7.50926 6.375 8.29167V14.6667C6.375 15.4491 7.00926 16.0833 7.79167 16.0833H14.1667C14.9491 16.0833 15.5833 15.4491 15.5833 14.6667V8.29167C15.5833 7.50926 14.9491 6.875 14.1667 6.875Z" stroke="#B09C60" stroke-width="1.41667" stroke-linecap="round" stroke-linejoin="round"/>
<path d="M3.54185 11.1248H2.83351C2.45779 11.1248 2.09745 10.9756 1.83178 10.7099C1.5661 10.4442 1.41685 10.0839 1.41685 9.70817V3.33317C1.41685 2.95745 1.5661 2.59711 1.83178 2.33144C2.09745 2.06576 2.45779 1.9165 2.83351 1.9165H9.20851C9.58424 1.9165 9.94457 2.06576 10.2102 2.33144C10.4759 2.59711 10.6252 2.95745 10.6252 3.33317V4.0415" stroke="#B09C60" stroke-width="1.41667" stroke-linecap="round" stroke-linejoin="round"/>
</svg>
