<svg width="17" height="16" viewBox="0 0 17 16" xmlns="http://www.w3.org/2000/svg">
<path d="M16.3899 8C16.3899 10.1217 15.5265 12.1566 13.9896 13.6569C12.4528 15.1571 10.3684 16 8.19495 16C6.02151 16 3.93709 15.1571 2.40024 13.6569C0.863394 12.1566 0 10.1217 0 8C0 5.87827 0.863394 3.84344 2.40024 2.34315C3.93709 0.842855 6.02151 0 8.19495 0C10.3684 0 12.4528 0.842855 13.9896 2.34315C15.5265 3.84344 16.3899 5.87827 16.3899 8ZM5.48447 4.646C5.38829 4.55211 5.25785 4.49937 5.12184 4.49937C4.98583 4.49937 4.85539 4.55211 4.75921 4.646C4.66304 4.73989 4.60901 4.86722 4.60901 5C4.60901 5.13278 4.66304 5.26011 4.75921 5.354L7.47072 8L4.75921 10.646C4.71159 10.6925 4.67382 10.7477 4.64805 10.8084C4.62227 10.8692 4.60901 10.9343 4.60901 11C4.60901 11.0657 4.62227 11.1308 4.64805 11.1916C4.67382 11.2523 4.71159 11.3075 4.75921 11.354C4.85539 11.4479 4.98583 11.5006 5.12184 11.5006C5.18919 11.5006 5.25587 11.4877 5.31809 11.4625C5.38031 11.4374 5.43685 11.4005 5.48447 11.354L8.19495 8.707L10.9054 11.354C10.953 11.4005 11.0096 11.4374 11.0718 11.4625C11.134 11.4877 11.2007 11.5006 11.2681 11.5006C11.3354 11.5006 11.4021 11.4877 11.4643 11.4625C11.5265 11.4374 11.5831 11.4005 11.6307 11.354C11.6783 11.3075 11.7161 11.2523 11.7418 11.1916C11.7676 11.1308 11.7809 11.0657 11.7809 11C11.7809 10.9343 11.7676 10.8692 11.7418 10.8084C11.7161 10.7477 11.6783 10.6925 11.6307 10.646L8.91917 8L11.6307 5.354C11.6783 5.30751 11.7161 5.25232 11.7418 5.19158C11.7676 5.13084 11.7809 5.06574 11.7809 5C11.7809 4.93426 11.7676 4.86916 11.7418 4.80842C11.7161 4.74768 11.6783 4.69249 11.6307 4.646C11.5831 4.59951 11.5265 4.56264 11.4643 4.53748C11.4021 4.51232 11.3354 4.49937 11.2681 4.49937C11.2007 4.49937 11.134 4.51232 11.0718 4.53748C11.0096 4.56264 10.953 4.59951 10.9054 4.646L8.19495 7.293L5.48447 4.646Z"/>
</svg>
