<svg width="17" height="18" viewBox="0 0 17 18" fill="none" xmlns="http://www.w3.org/2000/svg">
<g clip-path="url(#clip0_4657_1531)">
<path d="M10.0023 10.5014C9.80777 10.7101 9.57317 10.8776 9.31251 10.9937C9.05184 11.1099 8.77046 11.1723 8.48513 11.1774C8.19981 11.1824 7.91639 11.1299 7.65179 11.023C7.38719 10.9162 7.14683 10.7571 6.94504 10.5553C6.74326 10.3535 6.58418 10.1132 6.4773 9.84855C6.37043 9.58395 6.31794 9.30054 6.32297 9.01521C6.32801 8.72989 6.39046 8.4485 6.50661 8.18783C6.62275 7.92717 6.79021 7.69257 6.99898 7.49803M12.7082 13.2072C11.4973 14.1302 10.0229 14.6415 8.50065 14.6664C3.54232 14.6664 0.708984 8.99969 0.708984 8.99969C1.59007 7.3577 2.81212 5.92312 4.29315 4.79219L12.7082 13.2072ZM7.01315 3.50303C7.50072 3.3889 7.9999 3.33185 8.50065 3.33303C13.459 3.33303 16.2923 8.99969 16.2923 8.99969C15.8623 9.80408 15.3496 10.5614 14.7623 11.2593L7.01315 3.50303Z"  stroke-width="1.41667" stroke-linecap="round" stroke-linejoin="round"/>
<path d="M0.708984 1.20801L16.2923 16.7913"  stroke-width="1.41667" stroke-linecap="round" stroke-linejoin="round"/>
</g>
<defs>
<clipPath id="clip0_4657_1531">
<rect width="17" height="17" fill="white" transform="translate(0 0.5)"/>
</clipPath>
</defs>
</svg>
