<svg width="18" height="17" viewBox="0 0 18 17" fill="none" xmlns="http://www.w3.org/2000/svg">
<path d="M13.2495 14.875C14.4231 14.875 15.3745 13.9236 15.3745 12.75C15.3745 11.5764 14.4231 10.625 13.2495 10.625C12.0759 10.625 11.1245 11.5764 11.1245 12.75C11.1245 13.9236 12.0759 14.875 13.2495 14.875Z" stroke-width="1.41667" stroke-linecap="round" stroke-linejoin="round"/>
<path d="M4.75049 6.375C5.92409 6.375 6.87549 5.4236 6.87549 4.25C6.87549 3.07639 5.92409 2.125 4.75049 2.125C3.57688 2.125 2.62549 3.07639 2.62549 4.25C2.62549 5.4236 3.57688 6.375 4.75049 6.375Z" stroke-width="1.41667" stroke-linecap="round" stroke-linejoin="round"/>
<path d="M9.70898 4.25H11.834C12.2097 4.25 12.57 4.39926 12.8357 4.66493C13.1014 4.93061 13.2506 5.29094 13.2506 5.66667V10.625" stroke-width="1.41667" stroke-linecap="round" stroke-linejoin="round"/>
<path d="M4.74951 6.375V14.875" stroke-width="1.41667" stroke-linecap="round" stroke-linejoin="round"/>
</svg>
