<svg width="18" height="17" viewBox="0 0 18 17" fill="none" xmlns="http://www.w3.org/2000/svg">
<g clip-path="url(#clip0_4019_246)">
<path d="M6.38889 5.33333L11.3169 2.64532C11.85 2.35454 12.5 2.74039 12.5 3.34764V12.319C12.5 12.9263 11.85 13.3121 11.3169 13.0213L6.38889 10.3333M6.38889 5.33333H2.3C1.85817 5.33333 1.5 5.69151 1.5 6.13333V9.53333C1.5 9.97516 1.85817 10.3333 2.3 10.3333H5.16667H6.38889M6.38889 5.33333V10.3333M2.6 10.3333V14.5333C2.6 14.7911 2.79699 15 3.04 15H4.36C4.60301 15 4.8 14.7911 4.8 14.5333V10.3333" stroke-width="1.4" stroke-linecap="round" stroke-linejoin="round"/>
<path d="M14.5 6C14.5 6.53049 14.5 7.24989 14.5 8C14.5 8.75011 14.5 9.46951 14.5 10" stroke-width="1.2" stroke-linecap="round" stroke-linejoin="round"/>
<path d="M16.5 3C16.5 4.1936 16.5 5.81225 16.5 7.5C16.5 9.18775 16.5 10.8064 16.5 12" stroke-width="1.2" stroke-linecap="round" stroke-linejoin="round"/>
</g>
<defs>
<clipPath id="clip0_4019_246">
<rect width="17" height="17" fill="white" transform="translate(0.5)"/>
</clipPath>
</defs>
</svg>
