<svg width="508" height="527" viewBox="0 0 508 527"  xmlns="http://www.w3.org/2000/svg">
<path d="M494.544 477.739C472.381 463.762 450.272 449.733 428.109 435.756C424.996 433.805 421.882 431.8 418.769 429.849C411.065 424.997 399.825 424.997 392.121 429.849C369.958 443.826 347.848 457.855 325.686 471.832C322.572 473.783 319.459 475.787 316.346 477.739H342.994C320.831 463.762 298.721 449.733 276.558 435.756C273.445 433.805 270.332 431.8 267.218 429.849C259.514 424.997 248.275 424.997 240.57 429.849C218.408 443.826 196.298 457.855 174.135 471.832C171.022 473.783 167.909 475.787 164.795 477.739H191.443C169.281 463.762 147.171 449.733 125.008 435.756C121.895 433.805 118.781 431.8 115.668 429.849C107.964 424.997 96.7242 424.997 89.02 429.849C66.8574 443.826 44.7475 457.855 22.5848 471.832C19.4715 473.783 16.3582 475.787 13.2448 477.739C26.4897 485.334 39.7345 492.929 52.9266 500.523V63.6598C52.9266 61.8139 53.0321 59.9679 53.2959 58.1219C52.9793 60.4426 52.6627 62.816 52.3461 65.1366C52.821 61.8666 53.7181 58.7021 54.9845 55.6958C54.0875 57.8054 53.1904 59.9151 52.3461 61.9721C53.6653 59.0185 55.3011 56.2759 57.2536 53.6916C55.8816 55.4848 54.5096 57.2253 53.1376 59.0185C54.9845 56.6979 57.0953 54.5882 59.4171 52.7422C57.6229 54.1135 55.8816 55.4848 54.0875 56.8561C56.6731 54.9046 59.3643 53.2696 62.3721 51.9511C60.2613 52.8477 58.1506 53.7443 56.0927 54.5882C59.1532 53.3224 62.2665 52.4257 65.5382 51.9511C63.2164 52.2675 60.8418 52.584 58.52 52.9004C63.2164 52.3203 68.0183 52.5312 72.7147 52.5312H444.203C445.997 52.5312 447.844 52.6367 449.638 52.9004C447.316 52.584 444.942 52.2675 442.62 51.9511C445.892 52.4257 449.058 53.3224 452.066 54.5882C449.955 53.6916 447.844 52.7949 445.786 51.9511C448.741 53.2696 451.485 54.9046 454.071 56.8561C452.277 55.4848 450.535 54.1135 448.741 52.7422C451.063 54.5882 453.174 56.6979 455.021 59.0185C453.649 57.2253 452.277 55.4848 450.905 53.6916C452.857 56.2759 454.493 58.9658 455.812 61.9721C454.915 59.8624 454.018 57.7527 453.174 55.6958C454.44 58.7548 455.337 61.8666 455.812 65.1366C455.496 62.816 455.179 60.4426 454.862 58.1219C455.496 63.2379 455.232 68.5648 455.232 73.7336V482.538C455.232 488.287 455.179 494.036 455.232 499.785V500.523C455.232 507.274 458.187 514.395 462.936 519.194C467.527 523.783 475.02 527.211 481.616 526.895C488.423 526.578 495.494 524.363 500.296 519.194C505.045 514.025 508 507.696 508 500.523V63.3434C507.894 49.0502 503.145 35.7592 494.439 24.5251C482.091 8.54424 463.252 0 443.148 0H64.905C60.2086 0 55.5122 0.632906 50.8686 1.3713C33.7717 4.06115 19.7353 15.1898 10.237 28.7445C2.69118 39.5566 0 52.9532 0 65.9805V500.576C0 509.859 5.06575 518.667 13.0865 523.361C21.0018 528.002 31.8193 528.371 39.7345 523.361C61.8972 509.384 84.0071 495.355 106.17 481.378C109.283 479.427 112.396 477.422 115.51 475.471H88.8617C111.024 489.448 133.134 503.477 155.297 517.454C158.41 519.405 161.524 521.409 164.637 523.361C172.341 528.213 183.581 528.213 191.285 523.361C213.448 509.384 235.557 495.355 257.72 481.378C260.833 479.427 263.947 477.422 267.06 475.471H240.412C262.575 489.448 284.685 503.477 306.847 517.454C309.961 519.405 313.074 521.409 316.187 523.361C323.892 528.213 335.131 528.213 342.835 523.361C364.998 509.384 387.108 495.355 409.271 481.378C412.384 479.427 415.497 477.422 418.611 475.471H391.963C414.125 489.448 436.235 503.477 458.398 517.454C461.511 519.405 464.624 521.409 467.738 523.361C473.384 526.947 481.669 527.791 488.054 525.998C494.175 524.31 500.823 519.563 503.831 513.867C510.902 500.84 507.05 485.65 494.544 477.739Z" />
</svg>
