<svg width="18" height="17" viewBox="0 0 18 17" fill="none" xmlns="http://www.w3.org/2000/svg">
<path d="M6.50813 15.3003L5.81031 15.245L6.50813 15.3003ZM6.30023 15.5002L6.30017 16.2002L6.30023 15.5002ZM11.4924 15.3003L10.7945 15.3555L11.4924 15.3003ZM6.50786 1.69997L7.20568 1.64475L6.50786 1.69997ZM11.4921 1.69997L10.7943 1.64475L11.4921 1.69997ZM13.2579 1.7V14.1666H14.6579V1.7H13.2579ZM10.7943 1.64475C10.721 2.57082 9.9453 3.3 8.99998 3.3V4.7C10.6815 4.7 12.0595 3.40355 12.1899 1.7552L10.7943 1.64475ZM8.99998 3.3C8.05467 3.3 7.27897 2.57082 7.20568 1.64475L5.81005 1.7552C5.9405 3.40355 7.3185 4.7 8.99998 4.7V3.3ZM7.20594 15.3555C7.27924 14.4294 8.05494 13.7003 9.00024 13.7003V12.3003C7.31876 12.3003 5.94078 13.5967 5.81031 15.245L7.20594 15.3555ZM9.00024 13.7003C9.94556 13.7003 10.7213 14.4294 10.7945 15.3555L12.1902 15.2451C12.0597 13.5967 10.6817 12.3003 9.00024 12.3003V13.7003ZM4.74126 14.1666V1.7H3.34126V14.1666H4.74126ZM6.29998 0.800001L4.24126 0.800004L4.24126 2.2L6.29998 2.2L6.29998 0.800001ZM11.7 2.2L13.7579 2.2L13.7579 0.800004L11.7 0.800001L11.7 2.2ZM13.2579 14.1666V15.3003H14.6579V14.1666H13.2579ZM13.7579 14.8003H11.7002V16.2003H13.7579V14.8003ZM6.30029 14.8002L4.2413 14.8001L4.24118 16.2001L6.30017 16.2002L6.30029 14.8002ZM3.34126 14.1666V15.3001H4.74126V14.1666H3.34126ZM13.2579 15.3003C13.2579 15.0241 13.4818 14.8003 13.7579 14.8003V16.2003C14.255 16.2003 14.6579 15.7973 14.6579 15.3003H13.2579ZM5.81031 15.245C5.82756 15.0271 6.01055 14.8002 6.30029 14.8002L6.30017 16.2002C6.81083 16.2003 7.17126 15.7937 7.20594 15.3555L5.81031 15.245ZM10.7945 15.3555C10.8292 15.7937 11.1896 16.2003 11.7002 16.2003V14.8003C11.99 14.8003 12.1729 15.0271 12.1902 15.2451L10.7945 15.3555ZM7.20568 1.64475C7.171 1.20654 6.81061 0.8 6.29998 0.800001L6.29998 2.2C6.01027 2.2 5.8273 1.97318 5.81005 1.7552L7.20568 1.64475ZM12.1899 1.7552C12.1727 1.97318 11.9897 2.2 11.7 2.2L11.7 0.800001C11.1894 0.8 10.829 1.20654 10.7943 1.64475L12.1899 1.7552ZM4.74126 1.7C4.74126 1.97615 4.5174 2.2 4.24126 2.2L4.24126 0.800004C3.7442 0.800004 3.34126 1.20295 3.34126 1.7H4.74126ZM4.2413 14.8001C4.51743 14.8001 4.74126 15.0239 4.74126 15.3001H3.34126C3.34126 15.7971 3.74415 16.2 4.24118 16.2001L4.2413 14.8001ZM14.6579 1.7C14.6579 1.20295 14.255 0.800004 13.7579 0.800004L13.7579 2.2C13.4818 2.2 13.2579 1.97615 13.2579 1.7H14.6579Z"/>
<circle cx="6.15001" cy="6.7" r="0.7"/>
<circle cx="8.04998" cy="6.7" r="0.7"/>
<circle cx="9.95" cy="6.7" r="0.7"/>
<circle cx="11.85" cy="6.7" r="0.7"/>
</svg>
