<svg width="62" height="18" viewBox="0 0 62 18" fill="none" xmlns="http://www.w3.org/2000/svg">
<g clip-path="url(#clip0_206_4303)">
<path d="M0.874512 15.2869V3.54205H4.65386V4.42834H1.83248V14.4032H4.65386V15.2869H0.874512Z" fill="white"/>
<path d="M61.4417 15.2869H57.6636V14.4032H60.485V4.42834H57.6636V3.54205H61.4417V15.2869Z" fill="white"/>
<path d="M6.54366 13.3742L6.07593 5.45496H7.11268L7.40908 12.2953H7.55665L8.2745 5.45496H9.85778L10.5856 12.2953H10.7232L11.0308 5.45496H12.0664L11.5999 13.3742H9.82276L9.13992 6.85134H9.00361L8.31952 13.3742H6.54366Z" fill="white"/>
<path d="M23.5906 9.35583C24.4448 9.56497 24.9563 10.1465 24.9563 11.1412V11.2228C24.9563 12.6039 24.0808 13.3703 22.5876 13.3703H19.7412V5.4549H22.3037C23.8182 5.4549 24.6724 6.22003 24.6724 7.52205V7.61641C24.6724 8.45169 24.2847 8.97454 23.5906 9.21811V9.35583ZM20.9818 6.65106V8.76412H22.3262C23.1466 8.76412 23.4193 8.46189 23.4193 7.69548V7.64957C23.4193 6.92906 23.1466 6.65106 22.3262 6.65106H20.9818ZM23.7044 11.0289C23.7044 10.251 23.4193 9.94882 22.6101 9.94882H20.9843V12.1779H22.6101C23.4193 12.1779 23.7044 11.877 23.7044 11.0863V11.0289Z" fill="white"/>
<path d="M33.1079 12.1779H36.6033V13.3741H31.8435V5.4549H33.1079V12.1779Z" fill="white"/>
<path d="M39.8037 13.4901C38.2542 13.4901 37.1611 12.5273 37.1611 10.5877V8.24124C37.1611 6.30288 38.2542 5.33881 39.8037 5.33881H39.8712C41.4207 5.33881 42.52 6.30288 42.52 8.24124V10.5877C42.52 12.5273 41.427 13.4901 39.8775 13.4901H39.8037ZM39.8712 12.3296C40.8167 12.3296 41.2469 11.8999 41.2469 10.5877V8.24124C41.2469 6.92902 40.8142 6.49927 39.8712 6.49927H39.8037C38.8582 6.49927 38.428 6.92902 38.428 8.24124V10.5877C38.428 11.8999 38.8607 12.3296 39.8037 12.3296H39.8712Z" fill="white"/>
<path d="M46.5556 13.4901C45.0074 13.4901 43.9131 12.5273 43.9131 10.5877V8.24124C43.9131 6.30288 45.0074 5.33881 46.5556 5.33881H46.6244C48.1727 5.33881 49.2657 6.30288 49.2657 8.24124H48.0026C48.0026 6.92902 47.5699 6.49927 46.6269 6.49927H46.5581C45.6127 6.49927 45.1825 6.92902 45.1825 8.24124V10.5877C45.1825 11.8999 45.6152 12.3296 46.5581 12.3296H46.6269C47.5724 12.3296 48.0026 11.8999 48.0026 10.5877H49.2657C49.2657 12.5273 48.1727 13.4901 46.6244 13.4901H46.5556Z" fill="white"/>
<path d="M53.9579 8.71828L56.4591 13.3742H55.0959L53.2513 9.9119H53.115L52.192 11.2381V13.3742H50.9414V5.45496H52.192V9.10085H52.3171L54.7658 5.45496H56.2352L53.9579 8.71828Z" fill="white"/>
<path d="M13.4957 5.4549H18.3831V13.3741H13.4957V12.1779H17.1225V9.98325H14.3274V8.79983H17.1175V6.65106H13.4907L13.4957 5.4549Z" fill="white"/>
<path d="M26.1367 15.2934L29.7635 3.53571H30.6652L27.0384 15.2934H26.1367Z" fill="white"/>
</g>
<defs>
<clipPath id="clip0_206_4303">
<rect width="61" height="18" fill="white" transform="translate(0.874512)"/>
</clipPath>
</defs>
</svg>
