<svg width="16" height="16" viewBox="0 0 16 16" fill="none" xmlns="http://www.w3.org/2000/svg">
<path d="M8 0C5.87827 0 3.84344 0.842855 2.34315 2.34315C0.842855 3.84344 0 5.87827 0 8C0 10.1217 0.842855 12.1566 2.34315 13.6569C3.84344 15.1571 5.87827 16 8 16C10.1217 16 12.1566 15.1571 13.6569 13.6569C15.1571 12.1566 16 10.1217 16 8C16 5.87827 15.1571 3.84344 13.6569 2.34315C12.1566 0.842855 10.1217 0 8 0V0ZM0.986667 8.60444H3.21778C3.25333 9.41333 3.36622 10.2169 3.55556 11.0044H1.63556C1.27752 10.2497 1.05774 9.4368 0.986667 8.60444ZM8.60444 3.80444V1.05778C9.46105 1.38331 10.1649 2.01744 10.5778 2.83556C10.76 3.144 10.9209 3.46489 11.0578 3.79556L8.60444 3.80444ZM11.4667 5.00444C11.6729 5.78933 11.7956 6.59378 11.8311 7.40444H8.60444V5.00444H11.4667ZM7.39556 1.05778V3.80444H4.94222C5.07934 3.47351 5.23975 3.1527 5.42222 2.84444C5.83331 2.02298 6.53741 1.38548 7.39556 1.05778ZM7.39556 5.00444V7.40444H4.17778C4.21333 6.59378 4.336 5.78933 4.54222 5.00444H7.39556ZM3.21778 7.39556H0.986667C1.05774 6.5632 1.27752 5.75033 1.63556 4.99556H3.55556C3.36586 5.7828 3.25274 6.58654 3.21778 7.39556ZM4.17778 8.60444H7.39556V11.0044H4.54222C4.33603 10.2196 4.21386 9.4151 4.17778 8.60444ZM7.40444 12.16V14.9067C6.54784 14.5811 5.84395 13.947 5.43111 13.1289C5.24863 12.8206 5.08823 12.4998 4.95111 12.1689L7.40444 12.16ZM8.60444 14.9067V12.2044H11.0578C10.9207 12.5354 10.7603 12.8562 10.5778 13.1644C10.1649 13.9826 9.46105 14.6167 8.60444 14.9422V14.9067ZM8.60444 10.96V8.56H11.8222C11.7861 9.37066 11.664 10.1752 11.4578 10.96H8.60444ZM12.7911 8.56H15.0222C14.9511 9.39236 14.7314 10.2052 14.3733 10.96H12.4444C12.6311 10.1867 12.744 9.39822 12.7822 8.60444L12.7911 8.56ZM12.7911 7.36C12.7504 6.56561 12.6343 5.77688 12.4444 5.00444H14.3644C14.7227 5.76 14.9422 6.57244 15.0133 7.40444L12.7911 7.36ZM13.68 3.80444H12.0889C11.801 2.99582 11.3837 2.23931 10.8533 1.56444C11.9595 2.06096 12.9202 2.83205 13.6444 3.80444H13.68ZM5.14667 1.56444C4.61628 2.23931 4.199 2.99582 3.91111 3.80444H2.35556C3.07975 2.83205 4.04055 2.06096 5.14667 1.56444ZM2.34667 12.2311H3.91111C4.199 13.0397 4.61628 13.7962 5.14667 14.4711C4.03749 13.9671 3.0764 13.1866 2.35556 12.2044L2.34667 12.2311ZM10.8444 14.4711C11.3748 13.7962 11.7921 13.0397 12.08 12.2311H13.6444C12.9158 13.1905 11.9554 13.949 10.8533 14.4356L10.8444 14.4711Z" fill="white"/>
</svg>
