<svg width="15" height="12" viewBox="0 0 15 12" fill="none" xmlns="http://www.w3.org/2000/svg">
<path d="M12.896 2.94585C12.786 3.04059 12.6719 3.13076 12.5539 3.21608L12.372 3.34763L12.382 3.57191C12.3869 3.68271 12.3894 3.79624 12.3894 3.9073C12.3894 7.33907 9.77819 11.2668 5.0299 11.2668H5.02969C4.16796 11.2672 3.31727 11.1159 2.51534 10.8239C3.46969 10.6573 4.37382 10.257 5.14396 9.65204L6.06082 8.93184L4.89516 8.90842C4.41163 8.8987 3.94321 8.73827 3.55525 8.44952C3.34432 8.29253 3.1629 8.10187 3.01746 7.88656C3.23999 7.87471 3.46135 7.83912 3.67771 7.77992L3.64999 6.97023C3.12541 6.86463 2.65359 6.58063 2.31472 6.1665C2.10822 5.91413 1.95886 5.62293 1.87376 5.31285C2.10995 5.37698 2.35362 5.41363 2.59996 5.42145L4.05304 5.46758L2.84463 4.65929C2.35454 4.33148 2.00765 3.82935 1.87448 3.25497C1.78768 2.88061 1.7959 2.49388 1.89405 2.12871C2.52924 2.78909 3.27205 3.33923 4.09227 3.75479C5.11459 4.27275 6.23434 4.57009 7.37894 4.62753L7.92964 4.65516L7.80542 4.11794C7.69053 3.62108 7.74252 3.10021 7.95335 2.63586C8.16418 2.17152 8.52211 1.78955 8.97179 1.54903C9.42148 1.3085 9.93787 1.22281 10.4411 1.30521C10.9444 1.3876 11.4065 1.63349 11.756 2.00486L11.9139 2.17265L12.14 2.12794C12.3229 2.09176 12.5038 2.04698 12.682 1.99384C12.5873 2.07368 12.4858 2.14628 12.3783 2.21071L12.6404 2.98133C12.7259 2.97139 12.8111 2.95956 12.896 2.94585ZM12.896 2.94585C13.0334 2.82752 13.1643 2.70206 13.2883 2.57002C13.1402 2.70244 12.979 2.82142 12.8064 2.92487L12.5923 2.56779L12.5443 2.15425C12.7819 2.12665 13.0168 2.08199 13.2472 2.02077M13.2101 1.35679C12.8416 1.51933 12.4557 1.64112 12.0592 1.71954L13.2101 1.35679Z" fill="white" stroke="white" stroke-width="0.832639"/>
</svg>
