<svg width="16" height="16" viewBox="0 0 16 16" fill="none" xmlns="http://www.w3.org/2000/svg">
<path d="M13.6 2.32804C12.8665 1.58718 11.9929 0.999779 11.0301 0.600087C10.0672 0.200395 9.03447 -0.00358408 7.99198 4.76556e-05C3.62399 4.76556e-05 0.0639999 3.56004 0.0639999 7.92802C0.0639999 9.32802 0.431999 10.688 1.12 11.888L0 16L4.19999 14.896C5.35998 15.528 6.66398 15.864 7.99198 15.864C12.36 15.864 15.92 12.304 15.92 7.93602C15.92 5.81603 15.096 3.82404 13.6 2.32804ZM7.99198 14.52C6.80798 14.52 5.64798 14.2 4.63199 13.6L4.39199 13.456L1.89599 14.112L2.55999 11.68L2.39999 11.432C1.74219 10.3816 1.39291 9.16741 1.392 7.92802C1.392 4.29603 4.35199 1.33604 7.98398 1.33604C9.74397 1.33604 11.4 2.02404 12.64 3.27204C13.2539 3.88321 13.7405 4.61016 14.0715 5.41077C14.4024 6.21138 14.5712 7.06971 14.568 7.93602C14.584 11.568 11.624 14.52 7.99198 14.52ZM11.608 9.59202C11.408 9.49602 10.432 9.01602 10.256 8.94402C10.072 8.88002 9.94397 8.84802 9.80797 9.04002C9.67197 9.24002 9.29597 9.68802 9.18397 9.81602C9.07197 9.95202 8.95197 9.96802 8.75197 9.86402C8.55197 9.76802 7.91198 9.55202 7.15998 8.88002C6.56798 8.35202 6.17598 7.70402 6.05598 7.50402C5.94398 7.30403 6.03998 7.20003 6.14398 7.09603C6.23198 7.00803 6.34398 6.86403 6.43998 6.75203C6.53598 6.64003 6.57598 6.55203 6.63998 6.42403C6.70398 6.28803 6.67198 6.17603 6.62398 6.08003C6.57598 5.98403 6.17598 5.00803 6.01598 4.60803C5.85598 4.22404 5.68798 4.27204 5.56798 4.26403H5.18398C5.04798 4.26403 4.83999 4.31203 4.65599 4.51203C4.47999 4.71203 3.96799 5.19203 3.96799 6.16803C3.96799 7.14403 4.67999 8.08802 4.77599 8.21602C4.87199 8.35202 6.17598 10.352 8.15998 11.208C8.63197 11.416 8.99997 11.536 9.28797 11.624C9.75997 11.776 10.192 11.752 10.536 11.704C10.92 11.648 11.712 11.224 11.872 10.76C12.04 10.296 12.04 9.90402 11.984 9.81602C11.928 9.72802 11.808 9.68802 11.608 9.59202Z" fill="white"/>
</svg>
